<svg width="500" height="158" viewBox="0 0 500 158" fill="none" xmlns="http://www.w3.org/2000/svg">
<path d="M143.035 117.651L182.691 9.41804C185.024 3.28884 188.29 0 195.132 0H209.284C215.66 0.149491 219.393 3.88681 221.259 9.41804L260.76 117.651C261.071 118.697 260.915 119.295 259.515 119.295H237.277C236.344 119.295 235.877 118.847 235.566 117.95L227.013 94.7783H175.848L167.606 117.8C167.295 118.996 166.828 119.295 165.74 119.295H144.279C143.035 119.295 142.568 118.697 143.035 117.651ZM181.136 77.2877H221.881L201.353 20.63L181.136 77.2877Z" fill="white"/>
<path d="M276.508 105.542V13.7533C276.508 4.78376 281.329 0 290.815 0H323.007C355.821 0 380.703 21.9754 380.703 59.3485C380.703 97.4692 355.665 119.295 323.007 119.295H290.815C281.329 119.295 276.508 114.511 276.508 105.542ZM300.146 101.356H319.741C341.824 101.356 357.376 86.4067 357.376 59.498C357.376 33.7853 342.291 18.2381 319.741 18.2381H300.146V101.356Z" fill="white"/>
<path d="M398.915 117.8V11.9594C398.915 4.78376 403.114 0 410.734 0H423.02C430.174 0 433.284 3.73731 436.083 9.56753L478.383 93.1339V1.49492C478.383 0.298981 478.694 0 479.783 0H498.445C499.533 0 500 0.298981 500 1.49492V107.336C500 114.81 495.801 119.295 488.181 119.295H475.74C468.741 119.295 465.32 115.558 462.676 109.877L420.532 26.3107V117.8C420.532 118.996 420.065 119.295 418.977 119.295H400.47C399.382 119.295 398.915 118.996 398.915 117.8Z" fill="white"/>
<path d="M0.0222676 154.966L4.99823 142.233C5.29094 141.512 5.70072 141.125 6.55932 141.125H8.33506C9.13512 141.143 9.60344 141.583 9.83761 142.233L14.7941 154.966C14.8331 155.089 14.8136 155.16 14.638 155.16H11.8475C11.7304 155.16 11.6719 155.107 11.6329 155.001L10.5596 152.275H4.13964L3.10542 154.984C3.06639 155.124 3.00785 155.16 2.87125 155.16H0.178376C0.0222676 155.16 -0.0362732 155.089 0.0222676 154.966ZM4.8031 150.218H9.91566L7.33987 143.552L4.8031 150.218Z" fill="white"/>
<path d="M26.3941 150.358H28.9894C29.1455 150.358 29.1846 150.394 29.1846 150.534C29.1846 151.519 27.8381 155.283 22.589 155.283C18.3936 155.283 15.408 152.539 15.408 148.107C15.408 143.763 18.4911 140.985 22.589 140.985C27.8381 140.985 29.1846 144.678 29.1846 145.751C29.1846 145.874 29.1455 145.927 28.9894 145.927H26.3941C26.2575 145.927 26.2185 145.874 26.1795 145.751C25.7502 144.273 24.5208 143.341 22.589 143.341C20.0912 143.341 18.374 145.17 18.374 148.125C18.374 151.238 20.0912 152.944 22.589 152.944C24.5208 152.944 25.7502 152.012 26.1795 150.534C26.2185 150.394 26.2575 150.358 26.3941 150.358Z" fill="white"/>
<path d="M34.6987 154.984V143.324H30.4057C30.2691 143.324 30.2301 143.289 30.2301 143.148V141.301C30.2301 141.161 30.2691 141.125 30.4057 141.125H41.9968C42.1334 141.125 42.1919 141.161 42.1919 141.301V143.148C42.1919 143.289 42.1334 143.324 41.9968 143.324H37.7233V154.984C37.7233 155.124 37.6843 155.16 37.5282 155.16H34.8743C34.7377 155.16 34.6987 155.124 34.6987 154.984Z" fill="white"/>
<path d="M44.3064 154.984V141.301C44.3064 141.161 44.3454 141.125 44.482 141.125H47.1554C47.292 141.125 47.3505 141.161 47.3505 141.301V154.984C47.3505 155.124 47.292 155.16 47.1554 155.16H44.482C44.3454 155.16 44.3064 155.124 44.3064 154.984Z" fill="white"/>
<path d="M56.9311 140.985C61.146 140.985 64.3267 143.658 64.3267 148.107C64.3267 152.662 61.068 155.283 56.9311 155.283C52.7552 155.283 49.633 152.539 49.633 148.107C49.633 143.746 52.8332 140.985 56.9311 140.985ZM56.9506 152.961C59.5264 152.961 61.3802 151.22 61.3802 148.125C61.3802 145.135 59.5849 143.324 56.9311 143.324C54.4333 143.324 52.6381 145.135 52.6381 148.125C52.6381 151.273 54.3943 152.961 56.9506 152.961Z" fill="white"/>
<path d="M66.5831 154.984V142.532C66.5831 141.688 67.11 141.125 68.0662 141.125H69.6078C70.5054 141.125 70.8957 141.565 71.2469 142.251L76.5546 152.082V141.301C76.5546 141.161 76.5936 141.125 76.7302 141.125H79.0719C79.2084 141.125 79.267 141.161 79.267 141.301V153.753C79.267 154.632 78.7401 155.16 77.784 155.16H76.2229C75.3448 155.16 74.9155 154.72 74.5837 154.052L69.2955 144.221V154.984C69.2955 155.124 69.237 155.16 69.1004 155.16H66.7783C66.6417 155.16 66.5831 155.124 66.5831 154.984Z" fill="white"/>
<path d="M87.3163 154.984V142.743C87.3163 141.688 87.9213 141.125 89.1116 141.125H94.4193C97.2488 141.125 99.2392 142.831 99.2392 145.452C99.2392 148.055 97.0341 149.673 94.2827 149.673H90.3019V154.984C90.3019 155.124 90.2629 155.16 90.1068 155.16H87.492C87.3554 155.16 87.3163 155.124 87.3163 154.984ZM90.3019 147.58H93.9705C95.5511 147.58 96.4097 146.683 96.4097 145.452C96.4097 144.221 95.5511 143.271 94.068 143.271H90.3019V147.58Z" fill="white"/>
<path d="M108.25 140.985C112.464 140.985 115.645 143.658 115.645 148.107C115.645 152.662 112.386 155.283 108.25 155.283C104.074 155.283 100.951 152.539 100.951 148.107C100.951 143.746 104.152 140.985 108.25 140.985ZM108.269 152.961C110.845 152.961 112.699 151.22 112.699 148.125C112.699 145.135 110.903 143.324 108.25 143.324C105.752 143.324 103.957 145.135 103.957 148.125C103.957 151.273 105.713 152.961 108.269 152.961Z" fill="white"/>
<path d="M117.824 149.796V141.301C117.824 141.161 117.863 141.125 118.019 141.125H120.692C120.829 141.125 120.868 141.161 120.868 141.301V149.778C120.868 151.941 122.097 152.961 124.185 152.961C126.292 152.961 127.483 151.941 127.483 149.778V141.301C127.483 141.161 127.522 141.125 127.658 141.125H130.234C130.39 141.125 130.429 141.161 130.429 141.301V149.796C130.429 153.383 127.873 155.318 124.107 155.318C120.341 155.318 117.824 153.471 117.824 149.796Z" fill="white"/>
<path d="M133.032 154.984V142.743C133.032 141.688 133.637 141.125 134.828 141.125H140.447C143.277 141.125 145.267 142.831 145.267 145.434C145.267 147.527 143.804 148.934 141.833 149.391L145.092 154.966C145.17 155.072 145.092 155.16 144.955 155.16H142.087C141.97 155.16 141.911 155.124 141.852 155.001L138.886 149.673H136.018V154.984C136.018 155.124 135.979 155.16 135.823 155.16H133.208C133.071 155.16 133.032 155.124 133.032 154.984ZM136.018 147.58H139.999C141.56 147.58 142.418 146.683 142.418 145.434C142.418 144.203 141.56 143.271 140.077 143.271H136.018V147.58Z" fill="white"/>
<path d="M152.908 153.542V141.301C152.908 141.161 152.947 141.125 153.084 141.125H155.718C155.854 141.125 155.913 141.161 155.913 141.301V152.979H163.075C163.231 152.979 163.27 153.014 163.27 153.155V154.984C163.27 155.124 163.231 155.16 163.075 155.16H154.703C153.513 155.16 152.908 154.597 152.908 153.542Z" fill="white"/>
<path d="M165.39 153.542V142.743C165.39 141.688 165.995 141.125 167.185 141.125H175.595C175.752 141.125 175.791 141.161 175.791 141.301V143.113C175.791 143.253 175.752 143.289 175.595 143.289H168.336V147.105H174.873C175.03 147.105 175.069 147.14 175.069 147.281V149.057C175.069 149.198 175.03 149.233 174.873 149.233H168.336V153.014H175.849C175.986 153.014 176.025 153.049 176.025 153.19V154.984C176.025 155.124 175.986 155.16 175.849 155.16H167.185C165.995 155.16 165.39 154.597 165.39 153.542Z" fill="white"/>
<path d="M183.817 153.542V142.743C183.817 141.688 184.422 141.125 185.612 141.125H189.652C193.769 141.125 196.891 143.711 196.891 148.107C196.891 152.592 193.75 155.16 189.652 155.16H185.612C184.422 155.16 183.817 154.597 183.817 153.542ZM186.783 153.049H189.242C192.013 153.049 193.964 151.29 193.964 148.125C193.964 145.1 192.071 143.271 189.242 143.271H186.783V153.049Z" fill="white"/>
<path d="M199.177 153.542V142.743C199.177 141.688 199.781 141.125 200.972 141.125H209.382C209.538 141.125 209.577 141.161 209.577 141.301V143.113C209.577 143.253 209.538 143.289 209.382 143.289H202.123V147.105H208.66C208.816 147.105 208.855 147.14 208.855 147.281V149.057C208.855 149.198 208.816 149.233 208.66 149.233H202.123V153.014H209.636C209.772 153.014 209.811 153.049 209.811 153.19V154.984C209.811 155.124 209.772 155.16 209.636 155.16H200.972C199.781 155.16 199.177 154.597 199.177 153.542Z" fill="white"/>
<path d="M216.192 154.069L211.508 141.319C211.45 141.213 211.508 141.125 211.665 141.125H214.611C214.748 141.125 214.787 141.178 214.845 141.301L218.729 152.486L222.69 141.301C222.748 141.178 222.787 141.125 222.924 141.125H225.753C225.871 141.125 225.949 141.213 225.89 141.319L221.129 154.069C220.855 154.808 220.426 155.16 219.568 155.16H217.733C216.933 155.16 216.445 154.737 216.192 154.069Z" fill="white"/>
<path d="M227.856 153.542V142.743C227.856 141.688 228.461 141.125 229.651 141.125H238.062C238.218 141.125 238.257 141.161 238.257 141.301V143.113C238.257 143.253 238.218 143.289 238.062 143.289H230.803V147.105H237.34C237.496 147.105 237.535 147.14 237.535 147.281V149.057C237.535 149.198 237.496 149.233 237.34 149.233H230.803V153.014H238.315C238.452 153.014 238.491 153.049 238.491 153.19V154.984C238.491 155.124 238.452 155.16 238.315 155.16H229.651C228.461 155.16 227.856 154.597 227.856 153.542Z" fill="white"/>
<path d="M240.891 153.542V141.301C240.891 141.161 240.93 141.125 241.066 141.125H243.701C243.837 141.125 243.896 141.161 243.896 141.301V152.979H251.057C251.213 152.979 251.252 153.014 251.252 153.155V154.984C251.252 155.124 251.213 155.16 251.057 155.16H242.686C241.496 155.16 240.891 154.597 240.891 153.542Z" fill="white"/>
<path d="M259.118 140.985C263.333 140.985 266.514 143.658 266.514 148.107C266.514 152.662 263.255 155.283 259.118 155.283C254.942 155.283 251.82 152.539 251.82 148.107C251.82 143.746 255.02 140.985 259.118 140.985ZM259.137 152.961C261.713 152.961 263.567 151.22 263.567 148.125C263.567 145.135 261.772 143.324 259.118 143.324C256.62 143.324 254.825 145.135 254.825 148.125C254.825 151.273 256.581 152.961 259.137 152.961Z" fill="white"/>
<path d="M268.77 154.984V142.743C268.77 141.688 269.375 141.125 270.565 141.125H275.873C278.702 141.125 280.693 142.831 280.693 145.452C280.693 148.055 278.488 149.673 275.736 149.673H271.755V154.984C271.755 155.124 271.716 155.16 271.56 155.16H268.946C268.809 155.16 268.77 155.124 268.77 154.984ZM271.755 147.58H275.424C277.005 147.58 277.863 146.683 277.863 145.452C277.863 144.221 277.005 143.271 275.522 143.271H271.755V147.58Z" fill="white"/>
<path d="M282.795 154.984V142.743C282.795 141.688 283.4 141.125 284.591 141.125H289.898C292.728 141.125 294.718 142.831 294.718 145.452C294.718 148.055 292.513 149.673 289.762 149.673H285.781V154.984C285.781 155.124 285.742 155.16 285.586 155.16H282.971C282.834 155.16 282.795 155.124 282.795 154.984ZM285.781 147.58H289.449C291.03 147.58 291.889 146.683 291.889 145.452C291.889 144.221 291.03 143.271 289.547 143.271H285.781V147.58Z" fill="white"/>
<path d="M296.821 153.542V142.743C296.821 141.688 297.426 141.125 298.616 141.125H307.026C307.182 141.125 307.221 141.161 307.221 141.301V143.113C307.221 143.253 307.182 143.289 307.026 143.289H299.767V147.105H306.304C306.46 147.105 306.499 147.14 306.499 147.281V149.057C306.499 149.198 306.46 149.233 306.304 149.233H299.767V153.014H307.28C307.417 153.014 307.456 153.049 307.456 153.19V154.984C307.456 155.124 307.417 155.16 307.28 155.16H298.616C297.426 155.16 296.821 154.597 296.821 153.542Z" fill="white"/>
<path d="M309.855 154.984V142.532C309.855 141.636 310.382 141.125 311.338 141.125H312.938C313.855 141.125 314.402 141.6 314.656 142.357L317.719 151.959L320.822 142.357C321.056 141.6 321.622 141.125 322.539 141.125H324.12C325.076 141.125 325.583 141.636 325.583 142.532V154.984C325.583 155.124 325.544 155.16 325.388 155.16H323.027C322.89 155.16 322.851 155.124 322.851 154.984V144.115L319.534 154.122C319.261 154.896 318.851 155.16 318.051 155.16H317.309C316.509 155.16 316.061 154.808 315.807 154.122L312.509 144.115V154.984C312.509 155.124 312.47 155.16 312.333 155.16H310.05C309.914 155.16 309.855 155.124 309.855 154.984Z" fill="white"/>
<path d="M328.264 153.542V142.743C328.264 141.688 328.868 141.125 330.059 141.125H338.469C338.625 141.125 338.664 141.161 338.664 141.301V143.113C338.664 143.253 338.625 143.289 338.469 143.289H331.21V147.105H337.747C337.903 147.105 337.942 147.14 337.942 147.281V149.057C337.942 149.198 337.903 149.233 337.747 149.233H331.21V153.014H338.723C338.859 153.014 338.898 153.049 338.898 153.19V154.984C338.898 155.124 338.859 155.16 338.723 155.16H330.059C328.868 155.16 328.264 154.597 328.264 153.542Z" fill="white"/>
<path d="M341.298 154.984V142.532C341.298 141.688 341.825 141.125 342.781 141.125H344.323C345.22 141.125 345.611 141.565 345.962 142.251L351.269 152.082V141.301C351.269 141.161 351.309 141.125 351.445 141.125H353.787C353.923 141.125 353.982 141.161 353.982 141.301V153.753C353.982 154.632 353.455 155.16 352.499 155.16H350.938C350.06 155.16 349.63 154.72 349.299 154.052L344.01 144.221V154.984C344.01 155.124 343.952 155.16 343.815 155.16H341.493C341.357 155.16 341.298 155.124 341.298 154.984Z" fill="white"/>
<path d="M360.561 154.984V143.324H356.268C356.131 143.324 356.092 143.289 356.092 143.148V141.301C356.092 141.161 356.131 141.125 356.268 141.125H367.859C367.995 141.125 368.054 141.161 368.054 141.301V143.148C368.054 143.289 367.995 143.324 367.859 143.324H363.585V154.984C363.585 155.124 363.546 155.16 363.39 155.16H360.736C360.6 155.16 360.561 155.124 360.561 154.984Z" fill="white"/>
<path d="M375.561 154.984V142.532C375.561 141.688 376.088 141.125 377.044 141.125H378.586C379.483 141.125 379.874 141.565 380.225 142.251L385.533 152.082V141.301C385.533 141.161 385.572 141.125 385.708 141.125H388.05C388.186 141.125 388.245 141.161 388.245 141.301V153.753C388.245 154.632 387.718 155.16 386.762 155.16H385.201C384.323 155.16 383.893 154.72 383.562 154.052L378.274 144.221V154.984C378.274 155.124 378.215 155.16 378.078 155.16H375.756C375.62 155.16 375.561 155.124 375.561 154.984Z" fill="white"/>
<path d="M390.823 149.796V141.301C390.823 141.161 390.862 141.125 391.018 141.125H393.692C393.828 141.125 393.867 141.161 393.867 141.301V149.778C393.867 151.941 395.097 152.961 397.185 152.961C399.292 152.961 400.483 151.941 400.483 149.778V141.301C400.483 141.161 400.522 141.125 400.658 141.125H403.234C403.39 141.125 403.429 141.161 403.429 141.301V149.796C403.429 153.383 400.873 155.318 397.107 155.318C393.341 155.318 390.823 153.471 390.823 149.796Z" fill="white"/>
<path d="M406.032 154.984V142.532C406.032 141.636 406.559 141.125 407.515 141.125H409.115C410.032 141.125 410.579 141.6 410.832 142.357L413.896 151.959L416.999 142.357C417.233 141.6 417.799 141.125 418.716 141.125H420.297C421.253 141.125 421.76 141.636 421.76 142.532V154.984C421.76 155.124 421.721 155.16 421.565 155.16H419.204C419.067 155.16 419.028 155.124 419.028 154.984V144.115L415.711 154.122C415.438 154.896 415.028 155.16 414.228 155.16H413.486C412.686 155.16 412.237 154.808 411.984 154.122L408.686 144.115V154.984C408.686 155.124 408.647 155.16 408.51 155.16H406.227C406.091 155.16 406.032 155.124 406.032 154.984Z" fill="white"/>
<path d="M424.44 153.542V142.743C424.44 141.688 425.045 141.125 426.236 141.125H434.646C434.802 141.125 434.841 141.161 434.841 141.301V143.113C434.841 143.253 434.802 143.289 434.646 143.289H427.387V147.105H433.924C434.08 147.105 434.119 147.14 434.119 147.281V149.057C434.119 149.198 434.08 149.233 433.924 149.233H427.387V153.014H434.9C435.036 153.014 435.075 153.049 435.075 153.19V154.984C435.075 155.124 435.036 155.16 434.9 155.16H426.236C425.045 155.16 424.44 154.597 424.44 153.542Z" fill="white"/>
<path d="M437.475 154.984V142.743C437.475 141.688 438.08 141.125 439.27 141.125H444.89C447.72 141.125 449.71 142.831 449.71 145.434C449.71 147.527 448.246 148.934 446.276 149.391L449.534 154.966C449.612 155.072 449.534 155.16 449.398 155.16H446.529C446.412 155.16 446.354 155.124 446.295 155.001L443.329 149.673H440.46V154.984C440.46 155.124 440.421 155.16 440.265 155.16H437.65C437.514 155.16 437.475 155.124 437.475 154.984ZM440.46 147.58H444.441C446.002 147.58 446.861 146.683 446.861 145.434C446.861 144.203 446.002 143.271 444.519 143.271H440.46V147.58Z" fill="white"/>
<path d="M451.958 154.984V141.301C451.958 141.161 451.997 141.125 452.133 141.125H454.807C454.943 141.125 455.002 141.161 455.002 141.301V154.984C455.002 155.124 454.943 155.16 454.807 155.16H452.133C451.997 155.16 451.958 155.124 451.958 154.984Z" fill="white"/>
<path d="M465.558 155.16H464.836C460.523 155.16 457.284 152.522 457.284 148.09C457.284 143.728 460.484 140.985 464.602 140.985C468.817 140.985 471.978 143.64 471.978 148.09C471.978 151.079 470.261 153.084 468.719 153.893C470.241 154.28 471.607 155.722 471.607 157.076C471.607 157.2 471.549 157.252 471.412 157.252H468.914C468.778 157.252 468.758 157.2 468.7 157.076C468.27 155.722 467.061 155.16 465.558 155.16ZM464.68 152.891C467.178 152.891 469.031 151.22 469.031 148.125C469.031 145.135 467.236 143.324 464.582 143.324C462.085 143.324 460.289 145.135 460.289 148.125C460.289 151.273 462.085 152.891 464.68 152.891Z" fill="white"/>
<path d="M474.156 149.796V141.301C474.156 141.161 474.195 141.125 474.351 141.125H477.025C477.161 141.125 477.2 141.161 477.2 141.301V149.778C477.2 151.941 478.43 152.961 480.518 152.961C482.625 152.961 483.816 151.941 483.816 149.778V141.301C483.816 141.161 483.855 141.125 483.991 141.125H486.567C486.723 141.125 486.762 141.161 486.762 141.301V149.796C486.762 153.383 484.206 155.318 480.44 155.318C476.674 155.318 474.156 153.471 474.156 149.796Z" fill="white"/>
<path d="M489.365 153.542V142.743C489.365 141.688 489.97 141.125 491.16 141.125H499.571C499.727 141.125 499.766 141.161 499.766 141.301V143.113C499.766 143.253 499.727 143.289 499.571 143.289H492.312V147.105H498.849C499.005 147.105 499.044 147.14 499.044 147.281V149.057C499.044 149.198 499.005 149.233 498.849 149.233H492.312V153.014H499.824C499.961 153.014 500 153.049 500 153.19V154.984C500 155.124 499.961 155.16 499.824 155.16H491.16C489.97 155.16 489.365 154.597 489.365 153.542Z" fill="white"/>
<g clip-path="url(#clip0_167_515)">
<path d="M61.2101 50.2625C37.0024 65.3139 18.6449 31.8476 34.5242 13.0823C36.1111 11.2086 38.2464 9.8761 40.6159 9.17049C45.8357 7.61864 51.372 6.78192 57.1063 6.78192C64.401 6.78192 71.372 8.13354 77.785 10.5984C78.2705 10.7843 78.3382 11.428 77.9179 11.7307C65.6787 20.465 59.8213 32.825 61.5797 49.5021C61.6111 49.8025 61.4686 50.1004 61.2101 50.2625Z" fill="white"/>
<path d="M111.655 48.8799C103.669 57.9789 93.6545 62.8872 81.3719 63.1327C81.0458 63.1398 80.756 63.3425 80.6449 63.6452C66.8357 101.104 35.3333 108.556 7.44681 88.7944C7.05309 88.5154 6.56275 88.9827 6.82846 89.3808C46.7028 149.379 125.869 110.234 112.374 49.0539C112.302 48.7273 111.877 48.6248 111.655 48.8799Z" fill="white"/>
<path d="M120.014 6.33377C120.432 6.31709 120.785 6.66036 120.773 7.07275C120.338 23.1944 117.101 35.6689 110.944 44.3197C103.843 54.3079 92.8454 59.2066 77.7657 58.7703C77.4058 58.7608 77.0845 58.9968 76.9927 59.3401C68.2101 92.1722 38.8623 102.418 15.8454 89.7312C6.14734 84.3867 0.031401 74.2603 0 63.2996C0 63.2471 0 63.1923 0 63.1399C0 43.2065 10.4903 25.6855 26.3237 15.6664C26.9251 15.285 27.6401 15.9548 27.2995 16.5746C15.1642 38.632 38.872 72.7609 65.9493 51.4544C66.1691 51.2804 66.285 51.0039 66.256 50.7274C64.3526 32.2434 71.0145 20.4697 84.5386 13.7021C93.5072 9.20864 105.495 6.92257 120.014 6.33377Z" fill="white"/>
</g>
<defs>
<clipPath id="clip0_167_515">
<rect width="120.773" height="119.19" fill="white"/>
</clipPath>
</defs>
</svg>
